<svg xmlns="http://www.w3.org/2000/svg" width="42.666" height="42.42" viewBox="0 0 42.666 42.42"><defs><style>.a{fill:#7b7b7b;}.b{opacity:0.25;}</style></defs><g transform="translate(0.156 -0.66)"><path class="a" d="M41,5.155,32.215.925a2.656,2.656,0,0,0-3.03.515L.423,27.664a1.777,1.777,0,0,0,0,2.628l2.349,2.136a1.777,1.777,0,0,0,2.269.1L39.678,6.253a1.764,1.764,0,0,1,2.831,1.406v-.1A2.665,2.665,0,0,0,41,5.155Z" transform="translate(0 -0.002)"/><g transform="translate(-0.156 10.853)"><path class="a" d="M41,89.589l-8.786,4.23a2.657,2.657,0,0,1-3.03-.515L.423,67.081a1.777,1.777,0,0,1,0-2.627l2.349-2.136a1.777,1.777,0,0,1,2.269-.1L39.678,88.492a1.764,1.764,0,0,0,2.831-1.406v.1A2.665,2.665,0,0,1,41,89.589Z" transform="translate(0.156 -61.856)"/></g><g transform="translate(29.185 0.66)"><path class="a" d="M179.031,42.817A2.657,2.657,0,0,1,176,42.3a1.561,1.561,0,0,0,2.665-1.1V2.542A1.561,1.561,0,0,0,176,1.438a2.657,2.657,0,0,1,3.031-.516l8.784,4.224a2.665,2.665,0,0,1,1.51,2.4V36.191a2.665,2.665,0,0,1-1.51,2.4Z" transform="translate(-176 -0.66)"/></g></g></svg>