<svg xmlns="http://www.w3.org/2000/svg" width="50.654" height="44.152" viewBox="0 0 50.654 44.152"><defs><style>.a{fill:#707070;}</style></defs><path class="a" d="M49.027,9.979A1.03,1.03,0,0,0,47.692,9.4a1.042,1.042,0,0,0-.626.918.449.449,0,0,0,.083.334A23.268,23.268,0,0,1,28.415,41.941V31.05a16.372,16.372,0,0,0,2.044-.542v9.138A21.4,21.4,0,0,0,35.675.132.97.97,0,0,0,34.3.591a.827.827,0,0,0-.083.459,1.017,1.017,0,0,0,.5.876A19.41,19.41,0,0,1,32.42,36.975V28.881a3.068,3.068,0,0,0,2.17-2.962,2.986,2.986,0,0,0-1.544-2.67c.709-7.01,3.922-5.132,3.922-7.385V14.569C36.969,11.231,29.249.341,25.619.09h-.668C21.322.341,13.6,11.231,13.6,14.569v1.293c0,2.211,3.171.375,3.922,7.385a3.083,3.083,0,0,0-1.5,2.67,3.146,3.146,0,0,0,2.17,2.962v8.095A19.41,19.41,0,0,1,15.9,1.926,1.008,1.008,0,0,0,16.314.591a.9.9,0,0,0-.876-.584,1.11,1.11,0,0,0-.5.125,21.417,21.417,0,0,0,5.3,39.555V30.55a16.332,16.332,0,0,0,2.045.542v10.89A23.3,23.3,0,0,1,2.045,18.867a23.54,23.54,0,0,1,1.5-8.22A1,1,0,0,0,3,9.353a1.223,1.223,0,0,0-.376-.083,1.029,1.029,0,0,0-.96.668A24.6,24.6,0,0,0,0,18.867,25.292,25.292,0,0,0,24.284,44.152V31.343c.376.042,1.043.042,1.043.042s.668,0,1.043-.042v12.81A25.292,25.292,0,0,0,50.654,18.867,26.037,26.037,0,0,0,49.027,9.979ZM30,24.416a2.017,2.017,0,1,1-.626,1.46A2.048,2.048,0,0,1,30,24.416Zm-9.347,2.921a2.016,2.016,0,0,1-2.921,0,1.893,1.893,0,0,1-.626-1.46,2.086,2.086,0,0,1,4.172,0,2.233,2.233,0,0,1-.626,1.46Z" transform="translate(0 0)"/></svg>