<svg xmlns="http://www.w3.org/2000/svg" width="32" height="32"><path d="M16 .5C7.4.5.5 7.4.5 16S7.4 31.5 16 31.5 31.5 24.6 31.5 16 24.6.5 16 .5zm7.7 11c-.1.1-.4.5-.8.8-.6.6-.6.7-.6 1.2 0 .8-.4 2.4-.7 3.3-.7 1.7-2.1 3.4-3.6 4.2-2.1 1.2-4.8 1.5-7.1.8-.8-.2-2.1-.9-2.1-1 0 0 .4-.1.9-.1 1 0 2-.3 2.9-.8l.6-.4-.7-.2c-1-.3-1.8-1.1-2-1.8-.1-.2 0-.2.6-.2h.6l-.5-.3c-.6-.3-1.2-.9-1.5-1.4-.2-.4-.5-1.4-.4-1.5 0 0 .2 0 .5.1.7.3.8.2.4-.3-.8-.8-1.1-2.1-.7-3.2l.2-.5.7.7c1.5 1.4 3.2 2.3 5.2 2.5l.5.1V13c-.1-1.4.8-2.7 2.1-3.2.5-.2 1.3-.2 1.9 0 .2.1.6.3.9.5l.5.4.6-.2c.3-.1.8-.3 1-.4.2-.1.3-.2.3-.1 0 .2-.4.8-.7 1.2-.5.5-.3.5.6.2.5-.1.5-.1.4.1z"/></svg>