<svg xmlns="http://www.w3.org/2000/svg" width="32" height="32"><path d="M16 .5C7.5.5.5 7.5.5 16s7 15.5 15.5 15.5 15.5-7 15.5-15.5S24.5.5 16 .5zm9.7 26c-2.3-1.7-5.9-2-6.6-3.9-.1-1-.1-1.7-.1-2.6.5-.2 1.3-1.8 1.4-3 .4 0 .9-.4 1.1-1.7.1-.7-.3-1.2-.5-1.3.6-1.7 1.8-7.1-2.2-7.7-.4-.7-1.5-1.1-2.8-1.1-5.5.1-6.2 4.1-4.9 8.8-.2.1-.6.5-.5 1.3.2 1.4.7 1.7 1.1 1.7.1 1.3 1 2.8 1.4 3 0 .9 0 1.6-.1 2.6-.7 2-4.3 2.2-6.7 3.9-2.8-2.6-4.6-6.4-4.6-10.5C1.7 8.1 8.1 1.7 16 1.7S30.3 8.1 30.3 16c0 4.1-1.8 7.8-4.6 10.5z"/></svg>