<?xml version="1.0" encoding="utf-8"?>
<svg version="1.1" id="Calque_1" 
	xmlns="http://www.w3.org/2000/svg" 
	xmlns:xlink="http://www.w3.org/1999/xlink" x="0px" y="0px" width="32px" height="32px" viewBox="0 0 32 32" style="enable-background:new 0 0 32 32;" xml:space="preserve">
	<path d="M31.1,29.3L17.8,16L31.1,2.7v0c0.5-0.5,0.5-1.3,0-1.8c-0.5-0.5-1.3-0.5-1.8,0L16,14.2L2.7,0.9c-0.5-0.5-1.3-0.5-1.8,0
	c-0.5,0.5-0.5,1.3,0,1.8L14.2,16L0.9,29.3c-0.5,0.5-0.5,1.3,0,1.8c0.5,0.5,1.3,0.5,1.8,0L16,17.8l13.3,13.3c0.5,0.5,1.3,0.5,1.8,0
	C31.6,30.6,31.6,29.8,31.1,29.3z"/>
</svg>
