<?xml version="1.0" encoding="utf-8"?>
<svg version="1.1" id="Layer_1" 
	xmlns="http://www.w3.org/2000/svg" 
	xmlns:xlink="http://www.w3.org/1999/xlink" x="0px" y="0px" width="32px" height="32px" viewBox="0 0 32 32" style="enable-background:new 0 0 32 32;" xml:space="preserve">
	<g>
		<polygon points="23.4,4.8 24.7,4.8 24.7,8.1 25.9,9.3 25.9,3.6 22.2,3.6 22.2,5.5 23.4,6.8 	"/>
		<path d="M31.2,16.1L16.4,0.7c-0.1-0.1-0.2-0.2-0.4-0.2c-0.1,0-0.3,0.1-0.4,0.2L0.7,16.1c-0.3,0.3-0.2,0.7,0,0.9
		c0.3,0.3,0.7,0.2,0.9,0l2-2.1v16.6h24.7V14.8l2.1,2.2c0.1,0.1,0.2,0.2,0.4,0.2s0.3-0.1,0.4-0.2C31.4,16.7,31.4,16.3,31.2,16.1z
		 M19.1,30.2h-6.2V18.5h6.2V30.2z M27.1,30.2h-6.7v-13h-8.7v13H4.8V13.7L16,2l11.1,11.6V30.2z"/>
	</g>
</svg>
