<?xml version="1.0" encoding="utf-8"?>
<svg xmlns="http://www.w3.org/2000/svg" width="13.483" height="13.483" viewBox="0 0 13.483 13.483">
    <path class="a" d="M14.985,5.554,7.27,13.269a.749.749,0,1,1-1.049-1.064l7.7-7.708H11.239a.749.749,0,0,1,0-1.5h4.494a.749.749,0,0,1,.749.749V8.243a.749.749,0,0,1-1.5,0Zm-1.5,5.685a.749.749,0,0,1,1.5,0v3.745a1.5,1.5,0,0,1-1.5,1.5H4.5a1.5,1.5,0,0,1-1.5-1.5V6A1.5,1.5,0,0,1,4.5,4.5H8.243a.749.749,0,0,1,0,1.5H4.5v8.989h8.989Z" transform="translate(-3 -3)"/>
</svg>