<?xml version="1.0" encoding="utf-8"?>
<svg version="1.1" id="Layer_1" 
	xmlns="http://www.w3.org/2000/svg" 
	xmlns:xlink="http://www.w3.org/1999/xlink" x="0px" y="0px" width="32px" height="32px" viewBox="0 0 32 32" style="enable-background:new 0 0 32 32;" xml:space="preserve">
	<path d="M0.5,4.8v22.3h31V4.8H0.5z M1.7,9.3c1.7,1.5,5.4,4.7,8.1,7.1l-8.1,6.4V9.3z M30.3,25.9H1.7v-1.5l9.1-7.2
	c1.2,1,2.1,1.8,2.3,2c1.2,1,2.4,1.1,2.9,1.1s1.7-0.1,2.9-1.1l2.3-2l9.1,7.2V25.9z M30.3,22.8l-8.1-6.4l8.1-7.1V22.8z M30.3,7.6
	L18.1,18.3c-0.9,0.8-1.7,0.8-2.1,0.8s-1.2-0.1-2.1-0.8C13.1,17.5,3.1,8.8,1.7,7.6V6.1h28.5V7.6z"/>
</svg>
