<?xml version="1.0" encoding="utf-8"?>
<!-- Generator: Adobe Illustrator 22.0.0, SVG Export Plug-In . SVG Version: 6.00 Build 0)  -->
<svg version="1.1" id="Layer_1" 
	xmlns="http://www.w3.org/2000/svg" 
	xmlns:xlink="http://www.w3.org/1999/xlink" x="0px" y="0px" width="67px" height="67px" viewBox="0 0 67 67" style="enable-background:new 0 0 67 67;" xml:space="preserve">
	<style type="text/css">
	.st1{fill:#FFFFFF;}
	</style>
	<path class="st0" d="M34,64C17.4,64,4,50.6,4,34S17.4,4,34,4s30,13.4,30,30S50.6,64,34,64z"/>
	<g id="comp_x5F_144-gitlab">
		<g>
			<path class="st1" d="M22.5,16.3c-0.3-0.6-1.1-0.6-1.4,0l-4.3,13.4h10.1C26.8,29.7,22.5,16.3,22.5,16.3z M14.6,36.4
			c-0.3,0.6,0,1.3,0.5,1.6L34,52L16.7,29.7L14.6,36.4z M26.8,29.7L34,52.2l7.2-22.5C41.2,29.7,26.8,29.7,26.8,29.7z M53.4,36.4
			l-2.1-6.7L34,52.2l18.9-14C53.4,37.7,53.7,37,53.4,36.4z M47,16.3c-0.3-0.6-1.1-0.6-1.4,0l-4.3,13.4h10.1L47,16.3z"/>
		</g>
	</g>
</svg>
