<?xml version="1.0" encoding="utf-8"?>
<svg version="1.1" id="Layer_1" 
	xmlns="http://www.w3.org/2000/svg" 
	xmlns:xlink="http://www.w3.org/1999/xlink" x="0px" y="0px" width="32px" height="32px" viewBox="0 0 32 32" style="enable-background:new 0 0 32 32;" xml:space="preserve">
	<path d="M16,0.5C7.5,0.5,0.5,7.5,0.5,16s7,15.5,15.5,15.5s15.5-7,15.5-15.5S24.5,0.5,16,0.5z M25.7,26.5c-2.3-1.7-5.9-2-6.6-3.9
	c-0.1-1-0.1-1.7-0.1-2.6c0.5-0.2,1.3-1.8,1.4-3c0.4,0,0.9-0.4,1.1-1.7c0.1-0.7-0.3-1.2-0.5-1.3c0.6-1.7,1.8-7.1-2.2-7.7
	c-0.4-0.7-1.5-1.1-2.8-1.1c-5.5,0.1-6.2,4.1-4.9,8.8c-0.2,0.1-0.6,0.5-0.5,1.3c0.2,1.4,0.7,1.7,1.1,1.7c0.1,1.3,1,2.8,1.4,3
	c0,0.9,0,1.6-0.1,2.6c-0.7,2-4.3,2.2-6.7,3.9C3.5,23.9,1.7,20.1,1.7,16C1.7,8.1,8.1,1.7,16,1.7c7.9,0,14.3,6.4,14.3,14.3
	C30.3,20.1,28.5,23.8,25.7,26.5z"/>
</svg>
