<svg id="icons" xmlns="http://www.w3.org/2000/svg" viewBox="0 0 32 32"><title>icon-github-circle</title><path id="icon-github-circle" d="M16,.5A15.62,15.62,0,0,0,.5,16.24,15.7,15.7,0,0,0,12.24,31.5a2.12,2.12,0,0,1-.11-.75V28.08H10.19a2.62,2.62,0,0,1-2.44-1.34c-.51-.95-.59-2.4-1.86-3.31-.39-.31-.08-.63.34-.59a4.08,4.08,0,0,1,2.1,1.62,2,2,0,0,0,2.05,1,15.37,15.37,0,0,0,2.17-.16,4.93,4.93,0,0,1,2-2.56C9.41,22.13,6.93,19.54,6.93,16a6.52,6.52,0,0,1,1.75-4.25C8.33,10.53,7.86,8,8.83,7A5.48,5.48,0,0,1,12.9,9a11.54,11.54,0,0,1,7.52,0A5.45,5.45,0,0,1,24.48,7c.93.94.51,3.5.12,4.72A6.4,6.4,0,0,1,26.31,16c0,3.54-2.45,6.13-7.6,6.68a5.49,5.49,0,0,1,2.44,4.45v3.58c0,.12,0,.24,0,.36A15.67,15.67,0,0,0,31.5,16.24,15.62,15.62,0,0,0,16,.5Z"/></svg>