<?xml version="1.0" encoding="utf-8"?>
<svg version="1.1" id="Calque_1" 
	xmlns="http://www.w3.org/2000/svg" 
	xmlns:xlink="http://www.w3.org/1999/xlink" x="0px" y="0px" width="32px" height="32px" viewBox="0 0 32 32" style="enable-background:new 0 0 32 32;" xml:space="preserve">
	<g>
		<path d="M16,0.5c-0.8,0-1.4,0.6-1.4,1.4v5.6C14.6,8.3,15.2,9,16,9c0.8,0,1.4-0.6,1.4-1.4V1.9C17.4,1.1,16.8,0.5,16,0.5z"/>
		<path d="M16,23c-0.8,0-1.4,0.6-1.4,1.4v5.6c0,0.8,0.6,1.4,1.4,1.4c0.8,0,1.4-0.6,1.4-1.4v-5.6C17.4,23.7,16.8,23,16,23z"/>
		<path d="M7,5C6.5,4.5,5.6,4.5,5,5S4.5,6.5,5,7l4,4c0.3,0.3,0.6,0.4,1,0.4s0.7-0.1,1-0.4c0.6-0.6,0.6-1.4,0-2L7,5z"/>
		<path d="M23,21c-0.6-0.6-1.4-0.6-2,0c-0.6,0.6-0.6,1.4,0,2l4,4c0.3,0.3,0.6,0.4,1,0.4s0.7-0.1,1-0.4c0.6-0.6,0.6-1.4,0-2L23,21z"/>
		<path d="M9,16c0-0.8-0.6-1.4-1.4-1.4H1.9c-0.8,0-1.4,0.6-1.4,1.4c0,0.8,0.6,1.4,1.4,1.4h5.6C8.3,17.4,9,16.8,9,16z"/>
		<path d="M30.1,14.6h-5.6c-0.8,0-1.4,0.6-1.4,1.4c0,0.8,0.6,1.4,1.4,1.4h5.6c0.8,0,1.4-0.6,1.4-1.4C31.5,15.2,30.9,14.6,30.1,14.6z" />
		<path d="M9,21l-4,4c-0.6,0.6-0.6,1.4,0,2c0.3,0.3,0.6,0.4,1,0.4c0.4,0,0.7-0.1,1-0.4l4-4c0.6-0.6,0.6-1.4,0-2
		C10.5,20.4,9.6,20.4,9,21z"/>
		<path d="M22,11.4c0.4,0,0.7-0.1,1-0.4l4-4c0.6-0.5,0.6-1.4,0-2s-1.4-0.6-2,0l-4,4c-0.6,0.5-0.6,1.4,0,2
		C21.3,11.3,21.6,11.4,22,11.4z"/>
	</g>
</svg>