<svg xmlns="http://www.w3.org/2000/svg" width="50.988" height="55.268" viewBox="0 0 50.988 55.268"><defs><style>.a{fill:#707070;fill-rule:evenodd;}</style></defs><g transform="translate(-358.842 -513.086)"><g transform="translate(358.842 513.086)"><g transform="translate(0 0)"><path class="a" d="M28.254,71.47c-7.223-1.315-12.933.061-15.209,4-1.7,2.942-1.213,6.842,1.177,11.011a.741.741,0,1,0,1.285-.737c-2.153-3.755-2.572-7.121-1.18-9.533,1.891-3.275,6.984-4.5,13.661-3.287a.741.741,0,0,0,.265-1.457ZM17.978,91.552a46.349,46.349,0,0,0,11.042,8.718c10.477,6.049,21.631,7.666,27.128,3.918a.741.741,0,0,0-.834-1.224c-4.92,3.355-15.515,1.819-25.553-3.976a44.938,44.938,0,0,1-10.686-8.434.741.741,0,0,0-1.1,1Z" transform="translate(-10.265 -59.59)"/><path class="a" d="M54.509,90.86c4.729-5.587,6.38-11.206,4.109-15.14-1.671-2.895-5.2-4.423-9.9-4.484a.741.741,0,1,0-.019,1.481c4.223.055,7.267,1.372,8.636,3.743,1.887,3.268.414,8.279-3.957,13.442a.741.741,0,0,0,1.131.957ZM42.353,71.925a46.253,46.253,0,0,0-13.2,5.231C18.339,83.4,11.284,92.608,12.264,99.286a.741.741,0,0,0,1.466-.215c-.87-5.93,5.818-14.658,16.166-20.632a44.776,44.776,0,0,1,12.768-5.066.741.741,0,0,0-.31-1.448Z" transform="translate(-10.379 -59.799)"/><path class="a" d="M89.078,63.022c2.473,6.9,6.518,11.156,11.067,11.156,3.317,0,6.387-2.261,8.78-6.243a.741.741,0,0,0-1.27-.763c-2.151,3.578-4.793,5.525-7.511,5.525-3.779,0-7.387-3.792-9.672-10.174a.741.741,0,0,0-1.395.5Zm22.586-1.351a46.506,46.506,0,0,0,1.968-13.727c0-12.27-4.295-22.847-10.411-25.563a.741.741,0,0,0-.6,1.354c5.455,2.422,9.531,12.461,9.531,24.21a45.032,45.032,0,0,1-1.9,13.284.741.741,0,0,0,1.414.442Z" transform="translate(-74.626 -18.91)"/><path class="a" d="M275.8,239.639a3.545,3.545,0,1,0-3.545,3.545A3.545,3.545,0,0,0,275.8,239.639Zm-1.481,0a2.064,2.064,0,1,1-2.063-2.063A2.064,2.064,0,0,1,274.323,239.639Z" transform="translate(-224.816 -197.6)"/><path class="a" d="M4.787,243.178a3.545,3.545,0,1,0-3.545-3.545,3.545,3.545,0,0,0,3.545,3.545Zm0-1.481a2.064,2.064,0,1,1,2.063-2.064A2.063,2.063,0,0,1,4.787,241.7Z" transform="translate(-1.243 -197.596)"/><path class="a" d="M138.676,8.643A3.545,3.545,0,1,0,135.131,5.1,3.545,3.545,0,0,0,138.676,8.643Zm0-1.481A2.063,2.063,0,1,1,140.74,5.1,2.063,2.063,0,0,1,138.676,7.161Z" transform="translate(-113.157 -1.553)"/><path class="a" d="M144.207,167.917a2.565,2.565,0,1,1,1.965-3.048A2.565,2.565,0,0,1,144.207,167.917Z" transform="translate(-118.146 -136.373)"/></g></g></g></svg>