<svg xmlns="http://www.w3.org/2000/svg" width="55.478" height="41.6" viewBox="0 0 55.478 41.6"><defs><style>.a{fill:#707070;}</style></defs><g transform="translate(-26 -83.535)"><g transform="translate(26.001 83.535)"><path class="a" d="M73.761,107.446a11.371,11.371,0,0,0-5.026,1.17,10.681,10.681,0,0,1-1.127-2.609,6.968,6.968,0,0,1-.1-2.192,18.45,18.45,0,0,1,.659-2.357c-.009-.1-.121-.572-1.239-.581s-2.08.217-2.192.511a10.625,10.625,0,0,0-.459,1.655c-.2,1.014-2.236,4.636-3.389,6.526a6.733,6.733,0,0,1-.771-1.907,6.964,6.964,0,0,1-.1-2.192,18.457,18.457,0,0,1,.659-2.357c-.009-.1-.121-.572-1.239-.581s-2.08.217-2.193.511-.234.988-.459,1.655-2.938,6.7-3.648,8.267c-.364.8-.676,1.438-.9,1.872-.034.069-.061.113-.078.147.026-.043.043-.087.043-.069-.191.372-.3.58-.3.58v.009c-.147.277-.312.528-.39.528a3.593,3.593,0,0,1,.026-1.724c.407-2.1,1.369-5.355,1.36-5.468-.009-.061.182-.624-.633-.927a1.02,1.02,0,0,0-1.144.191c-.069,0-.121.173-.121.173s.875-3.674-1.681-3.674c-1.595,0-3.813,1.751-4.9,3.337-.685.373-2.167,1.179-3.726,2.036-.6.329-1.213.667-1.794.988-.043-.044-.078-.087-.121-.13-3.1-3.31-8.831-5.65-8.588-10.1.087-1.621.65-5.875,11.014-11.04C49.7,85.469,56.49,86.63,57.66,89.213c1.681,3.683-3.631,10.538-12.453,11.526-3.362.373-5.13-.927-5.572-1.412-.459-.511-.529-.537-.7-.442-.286.156-.1.607,0,.875a5.222,5.222,0,0,0,3.189,2.5c1.62.529,5.563.823,10.33-1.023,5.356-2.063,9.524-7.808,8.3-12.618-1.248-4.887-9.35-6.491-17.02-3.77a38.567,38.567,0,0,0-13.06,7.487c-4.22,3.952-4.9,7.392-4.619,8.831.988,5.1,8.025,8.432,10.841,10.893-.139.078-.269.147-.39.217-1.413.7-6.777,3.51-8.12,6.474-1.516,3.362.251,5.771,1.413,6.1a8.656,8.656,0,0,0,9.325-3.779,9.381,9.381,0,0,0,.832-8.623c-.009-.026-.026-.043-.035-.069.364-.216.736-.433,1.109-.65.719-.425,1.421-.815,2.036-1.153a13.455,13.455,0,0,0-.728,3.692,7.672,7.672,0,0,0,1.655,5.347,1.82,1.82,0,0,0,1.334.433c1.2,0,1.733-.988,2.331-2.167.737-1.439,1.387-3.111,1.387-3.111s-.815,4.524,1.413,4.524c.815,0,1.629-1.049,1.993-1.586v.009s.017-.035.061-.1c.087-.13.13-.208.13-.208v-.026c.329-.563,1.049-1.855,2.132-3.986,1.4-2.756,2.747-6.2,2.747-6.2a17.416,17.416,0,0,0,.538,2.236,20.925,20.925,0,0,0,1.161,2.6c-.329.451-.529.711-.529.711a.027.027,0,0,0,.008.017c-.26.347-.554.72-.858,1.084a30.441,30.441,0,0,0-2.6,3.258.885.885,0,0,0,.243,1.187,2.108,2.108,0,0,0,1.36.217,6.006,6.006,0,0,0,2.037-.468,7.121,7.121,0,0,0,1.751-.918,3.911,3.911,0,0,0,1.681-3.449,7.175,7.175,0,0,0-.633-2.444c.1-.139.2-.286.295-.433a46.068,46.068,0,0,0,3.042-5.252,17.455,17.455,0,0,0,.537,2.236,15.3,15.3,0,0,0,.988,2.227,9.525,9.525,0,0,0-2.955,3.822c-.641,1.846-.139,2.678.806,2.869a2.909,2.909,0,0,0,1.482-.3,6.879,6.879,0,0,0,1.872-.962A4.188,4.188,0,0,0,69.809,112a6.451,6.451,0,0,0-.468-2.028,10.581,10.581,0,0,1,5.382-.624c4.827.563,5.771,3.579,5.589,4.835a3.181,3.181,0,0,1-1.534,2.167c-.338.208-.442.286-.416.442.043.225.2.217.485.165a3.765,3.765,0,0,0,2.626-3.354c.139-2.946-2.695-6.187-7.712-6.161Zm-37.2,12.54c-1.594,1.742-3.83,2.4-4.792,1.846-1.031-.6-.624-3.163,1.343-5.018a25.685,25.685,0,0,1,3.761-2.808c.234-.139.572-.347.988-.6.069-.043.1-.061.1-.061.078-.052.165-.1.251-.147a6.915,6.915,0,0,1-1.655,6.785Zm11.647-7.921c-.555,1.36-1.725,4.827-2.435,4.645-.607-.156-.979-2.8-.121-5.4a11.943,11.943,0,0,1,1.9-3.475c.875-.979,1.837-1.291,2.062-.9.3.511-1.057,4.281-1.4,5.13Zm9.619,4.593c-.234.121-.451.2-.555.138-.078-.043.1-.208.1-.208s1.2-1.291,1.681-1.881c.277-.346.6-.754.945-1.2,0,.043.008.087.008.138C59.991,115.193,58.5,116.242,57.824,116.658Zm7.418-1.69c-.173-.121-.147-.529.433-1.794a6.754,6.754,0,0,1,1.646-2.123,3.131,3.131,0,0,1,.165.936,3.055,3.055,0,0,1-2.244,2.981Z" transform="translate(-26.001 -83.535)"/></g></g></svg>