<svg xmlns="http://www.w3.org/2000/svg" width="32" height="32"><path d="M16 .6c-.8 0-1.4.6-1.4 1.4v5.6c0 .8.6 1.5 1.4 1.5s1.4-.6 1.4-1.4V1.9c0-.8-.6-1.3-1.4-1.3zM16 23.1c-.8 0-1.4.6-1.4 1.4v5.6c0 .8.6 1.4 1.4 1.4s1.4-.6 1.4-1.4v-5.6c0-.7-.6-1.4-1.4-1.4zM7 5.1c-.5-.5-1.4-.5-2 0s-.5 1.5 0 2l4 4c.3.3.6.4 1 .4s.7-.1 1-.4c.6-.6.6-1.4 0-2l-4-4zM23 21.1c-.6-.6-1.4-.6-2 0-.6.6-.6 1.4 0 2l4 4c.3.3.6.4 1 .4s.7-.1 1-.4c.6-.6.6-1.4 0-2l-4-4zM9 16.1c0-.8-.6-1.4-1.4-1.4H1.9c-.8 0-1.4.6-1.4 1.4s.6 1.4 1.4 1.4h5.6c.8-.1 1.5-.6 1.5-1.4zM30.1 14.6h-5.6c-.8 0-1.4.6-1.4 1.4s.6 1.4 1.4 1.4h5.6c.8 0 1.4-.6 1.4-1.4s-.6-1.4-1.4-1.4zM9 21.1l-4 4c-.6.6-.6 1.4 0 2 .3.3.6.4 1 .4s.7-.1 1-.4l4-4c.6-.6.6-1.4 0-2-.5-.7-1.4-.7-2 0zM22 11.4c.4 0 .7-.1 1-.4l4-4c.6-.5.6-1.4 0-2-.6-.6-1.4-.6-2 0l-4 4c-.6.5-.6 1.4 0 2 .3.4.6.4 1 .4z"/></svg>